<?xml version="1.0" encoding="UTF-8" standalone="no"?>
<!-- Created with Inkscape (http://www.inkscape.org/) -->

<svg
   width="800"
   height="800"
   viewBox="0 0 800 800"
   version="1.1"
   id="svg1"
   sodipodi:docname="logo_clothes_2.svg"
   inkscape:version="1.3.2 (091e20e, 2023-11-25, custom)"
   inkscape:export-filename="logo-mono2.svg"
   inkscape:export-xdpi="61.439999"
   inkscape:export-ydpi="61.439999"
   xml:space="preserve"
   xmlns:inkscape="http://www.inkscape.org/namespaces/inkscape"
   xmlns:sodipodi="http://sodipodi.sourceforge.net/DTD/sodipodi-0.dtd"
   xmlns="http://www.w3.org/2000/svg"
   xmlns:svg="http://www.w3.org/2000/svg"><sodipodi:namedview
     id="namedview1"
     pagecolor="#505050"
     bordercolor="#eeeeee"
     borderopacity="1"
     inkscape:showpageshadow="0"
     inkscape:pageopacity="0"
     inkscape:pagecheckerboard="0"
     inkscape:deskcolor="#505050"
     inkscape:document-units="px"
     showborder="true"
     inkscape:zoom="2.0000001"
     inkscape:cx="472.99999"
     inkscape:cy="377.74999"
     inkscape:window-width="3840"
     inkscape:window-height="2126"
     inkscape:window-x="-11"
     inkscape:window-y="-11"
     inkscape:window-maximized="1"
     inkscape:current-layer="svg1"
     showguides="false"
     showgrid="false" /><defs
     id="defs1"><linearGradient
       id="swatch4"
       inkscape:swatch="solid"><stop
         style="stop-color:#000000;stop-opacity:1;"
         offset="0"
         id="stop4" /></linearGradient></defs><g
     inkscape:groupmode="layer"
     id="layer2"
     inkscape:label="InKnit Logo"
     transform="translate(139,-92.499998)"><g
       id="g4-9-7-6"
       transform="matrix(0.54738894,0,0,0.51125575,38.171413,301.43822)"
       inkscape:label="color"
       style="display:inline"><path
         fill="#ffb366"
         opacity="1"
         stroke="none"
         d="m 539.9779,355.047 c 23.87868,-22.61832 28.94582,-63.26842 29.54565,-97.39776 0.90807,-51.66723 11.85799,-151.45847 -39.51546,-149.14438 -51.37345,2.3141 -35.48107,130.06513 -81.62806,122.08727 -22.51929,-3.89312 -21.59034,-45.58887 -20.29637,-69.97267 1.54406,-29.09665 13.68493,-59.37663 32.89663,-80.022316 20.93459,-22.497179 51.72947,-41.044031 81.3096,-38.702408 29.17439,2.309504 58.57983,23.819872 74.07901,50.384133 28.83525,49.421161 16.09976,115.495091 18.23197,173.722181 1.0703,29.22813 1.29605,64.28417 20.41513,85.33638 13.1717,14.50351 35.84651,13.44373 125.86151,20.87419 90.01499,7.43046 136.21354,14.87452 179.74509,31.1262 38.07956,14.21629 74.5981,34.21506 107.9456,58.49594 29.368,21.38329 62.3459,42.5394 79.6874,75.72384 8.6904,16.62977 19.0158,40.31588 9.3132,56.29108 -24.4584,40.27053 -31.8416,33.86834 -278.16972,23.91062 -246.32812,-9.95773 -308.04016,3.06003 -307.0689,-30.92524 0.7189,-25.15517 45.77834,-12.33168 237.43393,-7.90583 191.65559,4.42585 247.89419,9.09534 254.62849,-18.43299 5.6198,-22.97237 -25.8102,-62.70051 -51.6754,-75.79423 -67.52887,-34.18499 -72.08618,-28.86665 -225.62289,-41.90015 -153.53672,-13.0335 -178.56305,-6.45152 -267.47014,0.69034 -77.02149,6.1871 -152.73901,24.74577 -229.20253,36.42708 -55.44561,8.47041 -108.21167,41.55187 -155.44498,112.51278 -56.367575,51.40122 -95.696583,26.67037 -91.472437,6.3606 C 52.522871,555.42985 90.84708,524.2619 123.12969,496.35487 165.57021,459.66673 216.87474,435.11166 334.04277,404.02282 451.21079,372.93397 506.15416,387.08547 539.9779,355.047 Z"
         id="path3-3-0-0"
         style="display:inline;fill:#ffb365;fill-opacity:0.996078"
         transform="translate(-197.17097,-274.25602)"
         inkscape:label="hanger"
         sodipodi:nodetypes="aacaaaaasacaaaacacsscascaaca" /><path
         fill="#5be55b"
         opacity="1"
         stroke="none"
         d="m 664.63764,533.62496 c -61.82197,7.46642 -167.03688,10.77959 -180.19799,52.05687 -13.1611,41.27729 77.51305,60.30436 123.19062,62.06392 53.91817,2.07699 107.44429,11.07443 161.32464,14.07237 53.20276,2.96024 106.78463,-1.94189 159.78303,3.85836 24.83356,2.71783 74.63776,-9.42852 73.66306,14.44782 1.309,40.01307 1.6935,51.49334 3.0724,75.40703 2.8104,48.73842 -22.37023,26.50544 -170.03192,44.67112 -147.66169,18.16568 -197.86786,19.59729 -328.57252,25.59462 -130.70465,5.99733 -150.49144,39.9415 -282.08059,29.94157 -48.81337,-3.7095 -32.96435,-100.85536 -32.64471,-153.24899 0.3037,-49.78139 -7.78678,-121.68059 32.79102,-145.16206 66.81397,-38.66377 125.70736,-40.33866 190.41439,-50.33897 128.01907,-19.78503 210.68924,-34.30523 387.6511,-18.53951 176.96186,15.76572 195.44396,12.35623 197.43333,48.32152 1.9893,35.96529 -70.74436,6.08699 -106.19906,6.41926 -76.58724,0.71775 -153.48929,-18.75666 -229.5968,-9.56493 z"
         id="path2-2-5-3"
         style="display:inline;fill:#5ae55a;fill-opacity:0.996078"
         transform="translate(-197.17097,-274.25602)"
         inkscape:label="pants"
         sodipodi:nodetypes="acsaacsccsasaccaa" /><path
         fill="#ff69ff"
         opacity="1"
         stroke="none"
         d="m 714.41843,1074.1012 c 24.59179,25.3453 63.60087,51.7336 50.52383,81.0389 -29.29198,15.5722 -118.8924,26.1277 -155.73846,12.7641 -54.99427,-25.7925 -77.96851,-97.8631 -114.33585,-149.0108 -31.83179,-44.76884 -147.99945,-136.99977 -90.7832,-138.00173 84.8624,-1.4861 48.30922,-10.85782 252.11762,-14.40699 203.80839,-3.5492 199.12562,-18.23437 274.42617,-23.79127 73.69216,-5.43821 18.40153,120.06825 12.87897,161.21939 -6.99407,52.1161 -98.29487,-3.623 -147.42264,-5.94858 -48.97641,-2.31837 -135.59262,-40.67357 -146.88379,-7.97965 -11.29116,32.69393 40.69664,58.84463 65.21735,84.11663 z"
         id="path4-6-5-8"
         style="display:inline;fill:#ff68ff;fill-opacity:0.996078"
         transform="translate(-197.17097,-274.25602)"
         inkscape:label="shirt"
         sodipodi:nodetypes="saaascssacs" /></g></g></svg>
